<mxfile host="Electron" modified="2024-06-10T17:39:38.026Z" agent="Mozilla/5.0 (Windows NT 10.0; Win64; x64) AppleWebKit/537.36 (KHTML, like Gecko) draw.io/24.4.13 Chrome/124.0.6367.207 Electron/30.0.6 Safari/537.36" etag="hBVqBupmfI9_Kqy44UWo" version="24.4.13" type="device" pages="2">
  <diagram id="SLWHj4rBBvoVbe6ptpyc" name="v0.2">
    <mxGraphModel dx="650" dy="1829" grid="0" gridSize="10" guides="1" tooltips="1" connect="1" arrows="1" fold="1" page="0" pageScale="1" pageWidth="850" pageHeight="1100" math="0" shadow="0">
      <root>
        <mxCell id="0" />
        <mxCell id="1" parent="0" />
        <mxCell id="NtMyg8WuWna2PfFkRvWS-9" value="" style="group" parent="1" vertex="1" connectable="0">
          <mxGeometry x="793" y="-939" width="1616" height="902" as="geometry" />
        </mxCell>
        <mxCell id="NtMyg8WuWna2PfFkRvWS-8" value="" style="rounded=1;whiteSpace=wrap;html=1;arcSize=0;" parent="NtMyg8WuWna2PfFkRvWS-9" vertex="1">
          <mxGeometry width="1616" height="902" as="geometry" />
        </mxCell>
        <mxCell id="NtMyg8WuWna2PfFkRvWS-1" style="edgeStyle=orthogonalEdgeStyle;rounded=0;orthogonalLoop=1;jettySize=auto;html=1;exitX=0;exitY=0;exitDx=78;exitDy=95;exitPerimeter=0;entryX=0.5;entryY=0;entryDx=0;entryDy=0;" parent="NtMyg8WuWna2PfFkRvWS-9" source="I0wa7j5SHERuh7v-KD6E-1" target="I0wa7j5SHERuh7v-KD6E-14" edge="1">
          <mxGeometry relative="1" as="geometry" />
        </mxCell>
        <mxCell id="I0wa7j5SHERuh7v-KD6E-1" value="A library has synced data with the Business Schemas&lt;div&gt;(JSON)&lt;/div&gt;" style="verticalAlign=top;align=left;spacingTop=8;spacingLeft=2;spacingRight=12;shape=cube;size=10;direction=south;fontStyle=4;html=1;whiteSpace=wrap;" parent="NtMyg8WuWna2PfFkRvWS-9" vertex="1">
          <mxGeometry x="637.5" y="334.25" width="180" height="78" as="geometry" />
        </mxCell>
        <mxCell id="I0wa7j5SHERuh7v-KD6E-2" value="Add:&lt;div&gt;&quot;fillableItems&quot;: []&lt;/div&gt;&lt;div&gt;&lt;br&gt;&lt;/div&gt;&lt;div&gt;if possible add pdfProps to each item in the JSON&lt;span style=&quot;background-color: initial;&quot;&gt;&amp;nbsp;&lt;/span&gt;&lt;/div&gt;" style="shape=callout;whiteSpace=wrap;html=1;perimeter=calloutPerimeter;align=left;" parent="NtMyg8WuWna2PfFkRvWS-9" vertex="1">
          <mxGeometry x="681" y="212.75" width="218" height="130" as="geometry" />
        </mxCell>
        <mxCell id="I0wa7j5SHERuh7v-KD6E-3" value="PDF Gen Configs&lt;div&gt;(Python Dictionary)&lt;/div&gt;" style="verticalAlign=top;align=left;spacingTop=8;spacingLeft=2;spacingRight=12;shape=cube;size=10;direction=south;fontStyle=4;html=1;whiteSpace=wrap;" parent="NtMyg8WuWna2PfFkRvWS-9" vertex="1">
          <mxGeometry x="411" y="296.25" width="180" height="116" as="geometry" />
        </mxCell>
        <mxCell id="I0wa7j5SHERuh7v-KD6E-4" value="&lt;div&gt;&lt;span style=&quot;background-color: initial;&quot;&gt;&quot;extraModules&quot;: [],&lt;/span&gt;&lt;br&gt;&lt;/div&gt;&lt;div&gt;&quot;feeCalPath&quot;: str,&lt;/div&gt;&lt;div&gt;&quot;usedSchemas&quot;: []&lt;/div&gt;" style="shape=callout;whiteSpace=wrap;html=1;perimeter=calloutPerimeter;align=left;" parent="NtMyg8WuWna2PfFkRvWS-9" vertex="1">
          <mxGeometry x="504" y="212.75" width="120" height="104" as="geometry" />
        </mxCell>
        <mxCell id="I0wa7j5SHERuh7v-KD6E-5" value="&lt;h1 style=&quot;margin-top: 0px;&quot;&gt;PDF Genarating Feature Design (v0.2)&lt;/h1&gt;&lt;p&gt;Modified preliminary design for the work flow&lt;/p&gt;" style="text;html=1;whiteSpace=wrap;overflow=hidden;rounded=0;" parent="NtMyg8WuWna2PfFkRvWS-9" vertex="1">
          <mxGeometry x="223" y="78.25" width="310" height="120" as="geometry" />
        </mxCell>
        <mxCell id="I0wa7j5SHERuh7v-KD6E-6" style="edgeStyle=orthogonalEdgeStyle;rounded=0;orthogonalLoop=1;jettySize=auto;html=1;exitX=1;exitY=0.5;exitDx=0;exitDy=0;entryX=0;entryY=0.5;entryDx=0;entryDy=0;" parent="NtMyg8WuWna2PfFkRvWS-9" source="I0wa7j5SHERuh7v-KD6E-7" target="I0wa7j5SHERuh7v-KD6E-12" edge="1">
          <mxGeometry relative="1" as="geometry" />
        </mxCell>
        <mxCell id="I0wa7j5SHERuh7v-KD6E-7" value="Input Parameters&amp;nbsp;&lt;div&gt;(name of a PDF form)&lt;/div&gt;" style="ellipse;whiteSpace=wrap;html=1;fontStyle=1" parent="NtMyg8WuWna2PfFkRvWS-9" vertex="1">
          <mxGeometry x="251" y="613.25" width="146" height="83" as="geometry" />
        </mxCell>
        <mxCell id="I0wa7j5SHERuh7v-KD6E-8" style="edgeStyle=orthogonalEdgeStyle;rounded=0;orthogonalLoop=1;jettySize=auto;html=1;exitX=0.25;exitY=0;exitDx=0;exitDy=0;startArrow=classic;startFill=1;endArrow=none;endFill=0;" parent="NtMyg8WuWna2PfFkRvWS-9" source="I0wa7j5SHERuh7v-KD6E-12" target="I0wa7j5SHERuh7v-KD6E-3" edge="1">
          <mxGeometry relative="1" as="geometry" />
        </mxCell>
        <mxCell id="I0wa7j5SHERuh7v-KD6E-10" style="edgeStyle=orthogonalEdgeStyle;rounded=0;orthogonalLoop=1;jettySize=auto;html=1;exitX=0.75;exitY=0;exitDx=0;exitDy=0;startArrow=none;startFill=0;entryX=0.25;entryY=1;entryDx=0;entryDy=0;" parent="NtMyg8WuWna2PfFkRvWS-9" source="I0wa7j5SHERuh7v-KD6E-12" target="I0wa7j5SHERuh7v-KD6E-14" edge="1">
          <mxGeometry relative="1" as="geometry" />
        </mxCell>
        <mxCell id="I0wa7j5SHERuh7v-KD6E-11" style="edgeStyle=orthogonalEdgeStyle;rounded=0;orthogonalLoop=1;jettySize=auto;html=1;exitX=1;exitY=0.5;exitDx=0;exitDy=0;entryX=0;entryY=0.5;entryDx=0;entryDy=0;" parent="NtMyg8WuWna2PfFkRvWS-9" source="I0wa7j5SHERuh7v-KD6E-12" target="I0wa7j5SHERuh7v-KD6E-15" edge="1">
          <mxGeometry relative="1" as="geometry" />
        </mxCell>
        <mxCell id="I0wa7j5SHERuh7v-KD6E-12" value="Coordinator" style="rounded=1;whiteSpace=wrap;html=1;fontStyle=1" parent="NtMyg8WuWna2PfFkRvWS-9" vertex="1">
          <mxGeometry x="471" y="624.75" width="120" height="60" as="geometry" />
        </mxCell>
        <mxCell id="I0wa7j5SHERuh7v-KD6E-13" style="edgeStyle=orthogonalEdgeStyle;rounded=0;orthogonalLoop=1;jettySize=auto;html=1;exitX=0.5;exitY=1;exitDx=0;exitDy=0;" parent="NtMyg8WuWna2PfFkRvWS-9" source="I0wa7j5SHERuh7v-KD6E-14" target="I0wa7j5SHERuh7v-KD6E-15" edge="1">
          <mxGeometry relative="1" as="geometry" />
        </mxCell>
        <mxCell id="I0wa7j5SHERuh7v-KD6E-14" value="JSON Parser" style="rounded=1;whiteSpace=wrap;html=1;fontStyle=1" parent="NtMyg8WuWna2PfFkRvWS-9" vertex="1">
          <mxGeometry x="734" y="483.25" width="120" height="60" as="geometry" />
        </mxCell>
        <mxCell id="I0wa7j5SHERuh7v-KD6E-15" value="PDF Generator" style="rounded=1;whiteSpace=wrap;html=1;fontStyle=1" parent="NtMyg8WuWna2PfFkRvWS-9" vertex="1">
          <mxGeometry x="734" y="624.75" width="120" height="60" as="geometry" />
        </mxCell>
        <mxCell id="I0wa7j5SHERuh7v-KD6E-16" value="Get Schemas" style="text;html=1;align=center;verticalAlign=middle;resizable=0;points=[];autosize=1;strokeColor=none;fillColor=none;" parent="NtMyg8WuWna2PfFkRvWS-9" vertex="1">
          <mxGeometry x="635" y="418.25" width="91" height="26" as="geometry" />
        </mxCell>
        <mxCell id="I0wa7j5SHERuh7v-KD6E-17" value="Selected&amp;nbsp;&lt;div&gt;Business Schemas Paths&lt;/div&gt;" style="text;html=1;align=center;verticalAlign=middle;resizable=0;points=[];autosize=1;strokeColor=none;fillColor=none;" parent="NtMyg8WuWna2PfFkRvWS-9" vertex="1">
          <mxGeometry x="567" y="547.25" width="154" height="41" as="geometry" />
        </mxCell>
        <mxCell id="I0wa7j5SHERuh7v-KD6E-18" value="Dictionary with core content" style="text;html=1;align=center;verticalAlign=middle;resizable=0;points=[];autosize=1;strokeColor=none;fillColor=none;" parent="NtMyg8WuWna2PfFkRvWS-9" vertex="1">
          <mxGeometry x="793" y="549.25" width="165" height="26" as="geometry" />
        </mxCell>
        <mxCell id="I0wa7j5SHERuh7v-KD6E-19" value="Extra Module List&lt;div&gt;Fee info&lt;/div&gt;" style="text;html=1;align=center;verticalAlign=middle;resizable=0;points=[];autosize=1;strokeColor=none;fillColor=none;" parent="NtMyg8WuWna2PfFkRvWS-9" vertex="1">
          <mxGeometry x="603" y="620.25" width="111" height="41" as="geometry" />
        </mxCell>
        <mxCell id="I0wa7j5SHERuh7v-KD6E-20" value="Fillable PDF" style="shape=note;whiteSpace=wrap;html=1;backgroundOutline=1;darkOpacity=0.05;fontStyle=1" parent="NtMyg8WuWna2PfFkRvWS-9" vertex="1">
          <mxGeometry x="974" y="604.75" width="80" height="100" as="geometry" />
        </mxCell>
        <mxCell id="I0wa7j5SHERuh7v-KD6E-21" style="edgeStyle=orthogonalEdgeStyle;rounded=0;orthogonalLoop=1;jettySize=auto;html=1;exitX=1;exitY=0.5;exitDx=0;exitDy=0;entryX=0;entryY=0.5;entryDx=0;entryDy=0;entryPerimeter=0;" parent="NtMyg8WuWna2PfFkRvWS-9" source="I0wa7j5SHERuh7v-KD6E-15" target="I0wa7j5SHERuh7v-KD6E-20" edge="1">
          <mxGeometry relative="1" as="geometry" />
        </mxCell>
        <mxCell id="I0wa7j5SHERuh7v-KD6E-22" value="" style="group" parent="NtMyg8WuWna2PfFkRvWS-9" vertex="1" connectable="0">
          <mxGeometry x="371" y="418.25" width="139" height="65.5" as="geometry" />
        </mxCell>
        <mxCell id="I0wa7j5SHERuh7v-KD6E-23" value="Get list of Schemas" style="text;html=1;align=center;verticalAlign=middle;resizable=0;points=[];autosize=1;strokeColor=none;fillColor=none;" parent="I0wa7j5SHERuh7v-KD6E-22" vertex="1">
          <mxGeometry x="-17" width="122" height="26" as="geometry" />
        </mxCell>
        <mxCell id="I0wa7j5SHERuh7v-KD6E-24" value="Get fee (later)" style="text;html=1;align=center;verticalAlign=middle;resizable=0;points=[];autosize=1;strokeColor=none;fillColor=none;" parent="I0wa7j5SHERuh7v-KD6E-22" vertex="1">
          <mxGeometry x="-17" y="20" width="92" height="26" as="geometry" />
        </mxCell>
        <mxCell id="I0wa7j5SHERuh7v-KD6E-25" value="Get Extra Module Lists" style="text;html=1;align=center;verticalAlign=middle;resizable=0;points=[];autosize=1;strokeColor=none;fillColor=none;" parent="I0wa7j5SHERuh7v-KD6E-22" vertex="1">
          <mxGeometry x="-17" y="39.5" width="139" height="26" as="geometry" />
        </mxCell>
        <mxCell id="I0wa7j5SHERuh7v-KD6E-26" style="edgeStyle=orthogonalEdgeStyle;rounded=0;orthogonalLoop=1;jettySize=auto;html=1;exitX=0;exitY=0;exitDx=0;exitDy=85;exitPerimeter=0;entryX=0.5;entryY=1;entryDx=0;entryDy=0;" parent="NtMyg8WuWna2PfFkRvWS-9" source="I0wa7j5SHERuh7v-KD6E-27" target="I0wa7j5SHERuh7v-KD6E-15" edge="1">
          <mxGeometry relative="1" as="geometry" />
        </mxCell>
        <mxCell id="I0wa7j5SHERuh7v-KD6E-27" value="PDF Modules&lt;div&gt;(Python Functions)&lt;/div&gt;" style="verticalAlign=top;align=left;spacingTop=8;spacingLeft=2;spacingRight=12;shape=cube;size=10;direction=south;fontStyle=4;html=1;whiteSpace=wrap;" parent="NtMyg8WuWna2PfFkRvWS-9" vertex="1">
          <mxGeometry x="710" y="749.25" width="169" height="69" as="geometry" />
        </mxCell>
        <mxCell id="I0wa7j5SHERuh7v-KD6E-28" value="Get Modules" style="text;html=1;align=center;verticalAlign=middle;resizable=0;points=[];autosize=1;strokeColor=none;fillColor=none;" parent="NtMyg8WuWna2PfFkRvWS-9" vertex="1">
          <mxGeometry x="714" y="713.25" width="86" height="26" as="geometry" />
        </mxCell>
        <mxCell id="NtMyg8WuWna2PfFkRvWS-4" value="" style="shape=image;verticalLabelPosition=bottom;labelBackgroundColor=default;verticalAlign=top;aspect=fixed;imageAspect=0;image=data:image/png,iVBORw0KGgoAAAANSUhEUgAAAvIAAACqCAYAAADP2av/AAAAAXNSR0IArs4c6QAAAARnQU1BAACxjwv8YQUAAAAJcEhZcwAADsMAAA7DAcdvqGQAADGHSURBVHhe7d19cFRlvifwr44gGOymwQBBQ0guiKOZDYvjtaR48aUGuQ5wpRDKkioUF7cK2ZW766wl4tTO1IhY1Hh3cC/yh6wvVGG5MFlc4DrKLXV4KSx1pEhNpGTIJkIGMiSa2C0ZIji6z9vpfs5Ld0530kl3+vup6nSf0yfnPOc55/T5nad/5+nLqqqqvkcvqqur0dbWhp6eHjOGiIiIiIgG0+XmmYiIiIiIiggDeSIiIiKiIsRAnoiIiIioCDGQJyIiIiIqQkMjkF+zH8+834xnXnpODKzCwjfFazH88Br9dp+p+R/Dwnlm2CW1POfx+IZV5r1i56ybWXennt/cgQo9Qc5uv34n3lr0r+KxE78cZUYSERERUWhDsEV+G852yOcEOk6qEXkkA92ncGu0CbvvqMHT5vH8+m3m/SHmZAe65HNHK9rUiBxVvIAnbgA+fu+nuGfPMvz382Y8EREREYU2NAJ5E2B2tTfp4YEy7w5cHxXLPbITn5hRtptfcrfU60e6lv1C5FwUtePsfjWiX6y69u+As+8wgCciIiLqgyGZI3+2PSH+9m/wmUnX2Qwt8PEPsMVqrd/dFMGt64o0/WZ/az9cMN2Oyoh5SUREREQ5K5kfhKrYcAxrbvoUW+5txT+8vww1ZnzXkWf9qTDzduDxdbchZga1BD7cOB177YsDM13Xb2vw8hYzziJb5BeXi0D+3uVWKoqdjjMPnzjDHTvx9K5K13KDyqbmOcUMCN5p1Pvwz6s5oIyqTmZaUXWT+L9HnjQDOZi7Htsfm4Gyz/dgyeOvmZFet+OXd/433JL4P7jnD//LjCMiIiKibJVWrzXR27BGBPEQQa1qIf9tE2Izn3LfFCtv6DTBudOKLqdLeQ4PO2kyJlCuuc9OndmPm/WEaTjpKh5Tlon53YQ/bUxXNr1cdWHglGvjB4CYRt/ka/HMa8uRhCijO6VHB/EQFydmXnK69vl9ukF49m3TUCZfTP4RHlRjiIiIiChfSiuQF1wt01t24sO4CMSnO4HwKiz8yRTVMh3Uwq49iZetQFqmmsh5OsHw06qVPZNVmFgunuIdOKtHGLKF3mrx33IUzeIpNlGn4FRsmI8aOY3dur9/OV4XQTqmzPfk3bu/PWhb/7aYVwTXz02l80wcFxFl+BR/sL5haFs/PcN69+7QByfQLV98/keka48nIiIiov5RYoF8ExpcgappHS+v1N0pmptXm4/1Ib2kFze/JNNqRKD9op1uI/gCe33BoNNmVuHHN8nA2zuNCL4PfCouJiIon2pGSJ4AXa53h7hgiY1L5eSo+wjkNxT90JVk0oENWLFkSYa0GmHU7bhxFPD/zjCthoiIiKgvSq5FfsCpdJ5U6o1OjfHk2oeVodtHp+U+LNn6rlKG7PJ5U3T606hfYJfsN/7vgS17for/3Kf+K4mIiIiIgXy+eXqtedp142v/ydhzTjpb5iXLtVveBiBz6/MVzJ//BZaKAP6ej4A1IqD/n/32NQARERFRaSrxQP451E0RQfCn7+vg2nSv6G7dNnnzg2ob/vCpzIWf4buRtmLuTYj5UoY8QqQMffKICeadNKNcyF5r6utR/3yGW13P/x7HzwN/d+1/MCOIiIiIKBclHcjf/JLshrIJv0923/gkGkQwG5u5LBkwq5x2JFSAP5j0DatTsNhuMZ+3Aw/MjKT9QSpNXIg8ehti8Q/wu2SwL7u89Pauoy9q+vKrrey1hoiIiGjglFggLwJhX766u5eZTx55Fh/GU9Pd3v4snn7xU/PuYJI3v+5Es0x/cdbBdJPp6wfflZdv+qh3pfRsw957j6IuOY18LEPsiFjXPvQjz15riIiIiAZOaf0g1Mx28yNMQ1fwj1AVEv4gFBEREVF/4M2uNMB+j9aEeUlEREREOWMgTwOuKdENTLwbvxxlRhARERFR1hjI04D7/Z+WYdNnwC13/iveWrSTAT0RERFRDkomR56IiIiIaChhizwRERERURFiIE9EREREVISKOpCXKT8jRowwQ0REREREpYMt8kRERERERYiBPBERERFREWIgT0RERERUhBjI59UqLHyzGc+8fwwL54nBNfvFazH85g5U6AnIo2LDMVFH+3GzGU7LqcuXnhMDTj034+E1+u28qJ2DXWuXY9fiSjEQxbqV4rUY3lSr36b0VizWdfXq3KgZM5DMtlLbjfpsfC1elcfB2jlYYUYNKlOeoXYcqmNmZS1mmWEKVnifLc65YQHWjReDznmD25LyhIH8QDrZgS753NGKNjWi9Nz8Uj4uZLbhbId8TqDjpBoxAOI485V+7lLLLkHFEkCNr8S0SBxHj7SaERSEgWMhqUTtJKDl40YcNmNKylD6bOnoRLd8/ipemtuS8o6BfF45AWY7zu5XI4qKCrplq7frYb5dGGzmoqirvUkPDwTzgdzdmdDDFNr23TuwdPMOPHQgbsYMnBUz61CW+ByHzpkRg8UEJ4PTctiPzjXiIbEtl24+iO1mVL45ra7JxxC/4Jg1tw7VaEVjoxlBaRXeZ4vTyJPAmcH+zKGSwEB+IO1vHfjgs6/iH2DLHTV42jx2N0Vw67pmPL5hlZmgMJxtl8H1wF4wNXfKEwc/rAubbtnsbm5la1hRqsQmEbgvnNSKveriwTzeAhYV+wVRWlHMrhHrdrplwC6UKBchP1vOxcWZiQ1AlD+XVVVVfW9epyX7a29ra0NPT48ZUxgKtVzZeQ4Pv78M+G0NfjfxGNbMjJjxTdh9xzx8Yoac6WJHnsXzZ5fhmfummPEioBT/+/IWMyDN24HH192GmBlMN6/elilb5BeXi0D+3uVWKpDMR38Kt0Y985Q561aZXPPylcdDXiyYZcgc+TUz28X/HkWdKGONngJdcr3XbzND2Xvw+XosmtyNoy+swIYDZmQezJq7AGtrPsfmV+JYtHYOqs347mP7XC1GarrpCRGcNODalQsww9kEiQbxv+6v02Vr5EJxwnAEzivEMhWZr3mXlc95+iCW7ra/FpaB0xyMk//7ZZ1r2pZ3d+CJRn95vJzpJO+09ntuMq/UqgfEcfSNfdjovUiSrdr316HMDAIywEvfMpyq54BpfPMKXmba9VV1l1Dlnta8D++NWaCmU/WerDtrnmZ5CNouHrrcVqDq205Gr9tT8E5j15mvDjzs/dE7bcC+6ui1/Gpek3FC1M2ZmVb9euap6z7zNnbK1S72rcap6eel+NbXu831/g8xrz1j7XUIKoN3n01xH3t6ns5x2ds+q7dXxLcvhj3OU/s8P1u0QfhsIRpADOQHnQ6qVcCaDGhNsAw7iLams4JkHfgCH26cjr37neGIK7hXAfmURHKasMsMDuSd+XkC9aWteP6RJ9X7aYN9Id08HU75peQ6qIuEcVb5s/Ugfl2/SJ2Euj/+DVY8d0iPzgM7gEmeWMwJzj7R2NOlTormhJ88AZrhoGDKOklmt0xYJzHv8qxx6nXqROb/X8EKoIJPoJaM0/rLkWl5rkBYjpsZx0OugMFhTuBfeQMKSSxzZRR7fEGj+yTvCyRNvaa2mV7GNBEcoPkQtmG2CHzENo0k8N7mFtSK9VKBi5w2qPw+TtBhBxEB+4HgBDKuAEaUbxMOpoZ99RM0f03Nb3RA8Bsg/bQhy2/qQgZNve7/rv0zgDWvVPCo/zdZ94oY1+s2N8uUL5PzMusEe33945zj0LU9Ara5b5/ySFe32R3n/GzR/OXItLz++WwhGlhMrSkUVqu0zK3f+29N4rPiJvzYm4+uUl1SwXHbgU/RhQjKp8qh5/APIgiWrdd2C/0nj+xEs5jm1qWyhxdL2GW6rMLEcvEU78BZPQLYv9wK4iUzL0xBXY69yLi+ZdhyVJX/+rm5pvO8hj9+Lp+7ceKD/AXxNtfJvLEBRxPiwnOq3SqqyelSgUYrGk+Lp9FRlf/r5MnutU/o5xqx7ZiYflKd7hHBknmZlVgkTsjdxw6lTl5i3k+8K05CAfNSrXdWoHH4s89F7UURk9u+nyXX0zohHj5wSJQ/ihkzrTorHyOCtThOfObUlyDztdOdSDPeiCbW3RMobT/SoNZx2g06cJF1pr46P9aQCrhMvZbVVLpytMtk4O5sx0hUBBWpuisbE9Bkm05tnQiCZWBpB3lmO0XqsMi5+U8EGXd6g3ip0QriJV/9xLHxYzks1i0fNxKGLb9DBFjp9n/UVqugr+Vk0PYL4Aoa9bzc2ynMNjfk/p+cVxyHmkUZI2OS3xDqfUuUzboZ9fCBBrSIZ/s41znUDdiWXEeZ031QTFeJOwNTg3q/yZWfLeENzmcL0cBiIF8guj59391CrW7mdAJ0i7fHGxlE3+G0XM9QJ5qus94UlCfRIOPq8kpXbzGhl2m5+SXZ0p7Ahy8Gt6gnOT305KQJDdaFSH947fElWLIkv2k1Kd6b1MzNT06AkuTv8UbduKVOriZPNtEpLmLcgk98vSxTBUWeE5WkbuANOIl6e1iQJ7XNnqCxX6TLBw6oM1PWGfebbt16kfVNriaXNWl8FOPMSx9v/bjKn3tPRitUcBRw30VjiwoSx43Vwd+sGyaLwMO7zUNyetHIg7Dld4QO0kPIaV7ebW70mvesAr9gqVzodDnUCXTJi8GAC7zeb3LlZ0t4BfTZQpRHDOSHnAxdMEbLMdG8DC16G9ZYvdaotJg7/CkuMmXG1btNppx4Ci9Dl2XeoCiTWWNl0CBPVJ7eP+RX6XqSQRJBTBZt0hx3ucTDlyurTviyNdNej3R9mffesim/Yncv0/na3xDLe0+26k6vSy1DtTj3bwDqExBgOZzgr2ZMcCAWRKZquNYz39s8RPkHS6/bPCynVfqWVO85Ogi3AlpzIVg23btMmXqkJ3HTgafrG6B84mdLSj9/thANJAbypcROhwlLpfKkeq15OiC3PZWDb0238YM+tMhTGO1felrAMjj8pWwllCkPVs8f1qP/W8PC0q2TKi0ioFy6BdHWiiec9+RX9+KkujDghNtby6bOk9X5zKnlyRO5LYprR8tnuQxzcvfkBg80p7VX9Zhkp3qkkcoBt9bzDZlOMjiy6rnDfHMQlDaSi3DbPCwTJEbqsNbsG768a6e3kmP7rOVZD2/ahklL8rVsDwJ+tuT+2UI00BjIF6iKuTchlm2KSdpc8udQNyUglcYjp2WaeaPp7VA3oqpuInP5ZqCPZK819fXbsX6uGTGg0n3FnonJy51U7T+RhEqr8Cwz3dfcfWEClWxa7/zSpQaE0ChO0OqEG8G1rq/D032l7nBSCxqwJ1MdJvO9rZO/eOQzMNkuW/ojkzHb+/W+J31BB09iG2fMc9f7AE43WLnL6YW9OMgkbPlDOdeKE3I1A46B7IXc5iElc6+t/WLpZiuIV9Kn0ARRaUlZp2vwsyW9wfhsyZ4+N9Vj+5OzzRii7DCQL0TzduABddPqTlePL717Er87kkBs5n9y/WjTzS/JHmqa8PtM3TfmvMwmdMhz85QZuFmP0L3MpEmtaTsrP56n4PYB7Yf+Qfxosnwuw7TbBv7DcsVi+fV9a+pmyJD0zXOVWGj//Pf4WqxSN5Zl/vrdt0yTJlJ9V7gc0HBMoGKnnuRA3XAoWzZdP3PuJ1tUvb/0GJiT7QTgaW9EMyd4O+CUPVR40yzyEaD0RqVsRDHjHvsHjyqx6S6xnnZA7qR2eLen7LUmWUemRdIO2GSPI2lSHpyLg+CbMEMKW/5Q4tj4lvz2IKBlVGyvTVmVM+Q2D0nXlTfI8zI3Fk+a0/uPgDk3L2eZrsHPlswG/rMlW7Nx3Rj9quyWfxRnKqLssfvJQWd1BWnx9Q3vTNe0E0+7eojxs7twVFy900jhltlbV5EpnvnJ5b0IPCCC+S7femQun35P9iNvd1up56/60M+xL/kB7UdenAxdZC8Nnq9x9XSer+ID2V22ad7UjrDLlHqf1t9dW2aZyud/L0W2Zh60Aobgab3rqlNFzIAUsJ7puu9zc7pJNIOqPJ7uIoXA+pKSy3V3Q+ferp66lIFjmiBapl+kehjxls37foqvPnzbzVOvstxvAatEOYK66/Otr1W/aetCyLr8pi68ZQjedv75ubZ76HmF2ea6vtzdVjrr7u4z3Ff3Du82CNzu8pue1LEfNH+vwPoP2P/1dPxsGbzPliyt/DXqF8jStWDPkp/hNT2WKDQG8oOu70Fq9gZjmaUhzAm5vw3GMguXPmnLH/SxT9K5cAIT7wk/GZiFDkhoqNFBnzsYV0wf6+kuvILpCwz5o2KZ/oefLYOt/z5b3MzvnCSO4jcrN2BgOkimoYSpNUQ0ZPTnjWiqZ5igeaXpspBKhbkJOiif3dygm5UCusmV0svXTa4PPi9/rLAbR19lEE+5YSBPREPG4QOyh5D+aT1UN3/Cf0OpzhFGfrugpAIWkG+vRLHuHplCk2VQLm+s9N0oS4WmPz9bFJlSUy9TPmVKzUD9xgkNRQzkiYgCyBP35mNxVN/l9CutH/rn9fv763UqJvLHlfae9vadvgAz0IDNDMopjFd+hiVL5A8VMi+e+oY58kRERERERYgt8kRERERERYiBPBERERFREWJqDdEQt3r1avMqs61bt5pXREREVAwYyBMNcTKQf9H7q1wejz68hoE8ERFRkWFqDRERERFREWIgT0RERERUhBjI59UqLHyzGc+8fwwL54nBNfvFazH85g5U6Al8bn5JTm89XnrOvONw5tmMh9eYUTZnGWn/X/MuJ3BeIal5ZVgnLVVu/TB1UrKew8OqHvbjZjFUseGYrpc026u/XH53A677eUvq8djr/BAgIiIqUjyHD6STHeiSzx2taFMj3GRAvHhKAh9urMHTd5jHI0+ad0PaMs/877P4MMOPC37yiJn/xg90mfJuG/bea5b52yYzbmCEu9AYXG1n9Y/+d7UPRN00of1X1fizfLzwAL4zY4mIiKi4MJDPq2042yGf23F2vxqRwXOomyKemt7G3ozTpgLiXu5fHMKc1uyAR4EH7ClN6JAXWvEOnNUjiIiIiLLCQH4g7W9Vrd+ZWl0HpkW22D2Jl9W3Dk7rvvUtxr3LA7/tKHjm25qus9v0MBEREVEvGMjnmU5hmYdP1JAOQJ9fn0uwNkg55vN24HG7xTvTcj3T5p533w/rapVlsfymI3ob1iTnJx6+lntvK7/OXXeo9JyXnnPnslvLcK+rd15B5TffrDgXHvuX4/kM37I8+Hw96uu3Y/1cM4KIiIhKHgP5QWUHrMtQI8bEZj6VJgAcjBxzEZA+Crwul2keu5siuHVdUGB6Ex5YdxP+ZFrGtxxJoOa+HAJwFQQ/hVs7diaXueUI0iwzAxMY6zKL4fgH2GKG1cNuuVcB+TLEjjybfH930xQs9gTzKJ+PB8a9ret/ynw8/qhcX30vQs105yZVWX6xLZtS5X/6jrdR/mhfUn4exI8my+cyTLttthpDRERExEB+UFnB+R070SzGdFnB5NN3TO8lXz7fnsTLnlSVT3bJm2MjuH7uKjPGiEIEtanytq1/W6yPCPqXZtcLS8WG+eKCpgm7rZt829b/iwiWs59XWDcvvQ0xEei/bn1T8skjcntMwe0brPWU67jLKVcE+PRfUtunvFIH6vMqERNPzcfsm5T99Zid1/DHz+VzN058cEiNISIiImIgT9kxef4+8U/xB9dFh7mZ0wlwQ1mFH98kAuSmoyYVyWFuGs5qXmHpm4y7Pn3fE2jr8sfGybwcw7OOgfnspn5q7utbl55erz2+BEuWrMCGA2YEERERlTwG8pRRMic8+dApQL0zwXdWpqA8Kp+WeZZp8tzzwbSgu1Oa5OMp3CrLkjV5H4RJtxHBvJ5XLilGRERERJkxkKe0ZBC/ZmYEzb91Un1SKUC9W4WJ5eIpTZ/5wUwrviu/3Hrko0capychV0qT9ci2H3/FSplS/fSnu6+AiIiIKHcM5CkNk+YS/wC/y6W/+nl34PqoCJCz6k4zPyk0Z9sTQLQcE82wW0AKTX+SN92aYL58qhmXA/ZaQ0RERF4M5CkNE1RHb8KPnZZk07tL76k1q7DwUf8NpGGom2llV5Gye8d+on811XPjatI27P032QvNMjwe+H6W1uz3zadi7k2IIYGOk2ZE1thrDREREfldVlVV9b15nVZ1dTXa2trQ09NjxhSGQi1XbnS3hbILxMB+5mUQvU4Ex2bQRXataNJOZH/n6fLJZYqM7qfcdJGoxno1YXey33vZPaadKy7fO4o6bzlF8PrMfZ6FyvQYOy0lZPm14PKFKr9vXpqTJpTknS6wfPKHpnRPPKpey83/mPXV5TF1hNT8fMty1WluZIv8osndOPpC9je8rl69Gi+aDuovv7sBE/++He2/+gkuqjHaow+vwdatW80QERERFQMG8kRDHAN5IiKioYmpNURERERERYiBPBERERFREWIgT1RypmDcz1twnXw89jo/BIiIiIoUz+FEJeS7d+rw519Vpx4vPIDvzHtERERUXBjIExEREREVIfZaQzTEyV5rwmCvNURERMWFgXyeLF68GIcOHcIXX3xhxhARERER9R+m1hARERERFSEG8kRERERERYiBPBERERFREWIgX6pq52DX2uXYtbhSDESxbqV4LYY31eq3C16xl5+IiIiojxjIkxDHma/0c1eHGlFkir38RERERNljIF+qOjrRLZ66OxN6uNgUe/mJiIiI+oiBPCnNnXHxN4Ez5/RwsSn28hMRERFli/3I50nR9yMvc9DvqkT3sX146IAMklNWLF6OhZNasXfzQWw344BKbFo7B9VmCPC+L8lc9gWYETGDgm/+arkRHH1jH87MlMsx4wPnR0RERFS62CJPwRobcDQBlNVUYpYZpVWiVgbXp1tSQfX4WrwqgvhxIihfunmHeuw9XYmFYtwKM4m0YvFs4C39vnq824qy6Qvw6tyomcIRxYz7RRCPg2bafaIsYn4raz1lISIiIipdDOQpjTgONceByGTMHm9GSbXVqBbvHT3SakaIAH1mHcoSDdhmtaxv330QLSLov9MK0rfv3oeNdupL2osF3VK/dLezDKcsY1BjxhARERGVOgbylNbhzz5HN6KYdkMqGF8xtRJIfI5DyYBct9B3N7fisBmjJdAlg/QxVh6Nj9PbjF/7l+50nsMHZGs/U2uIiIiIHAzkKb1zjXjvtN1iroP2lo8bU0H7+CjGiSeZIqP6dU8+3LnwikrBsaexc+CJiIiIKBsM5Cmj7SdbU+k1Kq2mFY2N+j3lXBzt4kmlwji57/bDSY+RQfz9dSg77eS968decaFARERERNljIE+ZqTx2nV6j0mrsm1yVMCk0wKwbJqPMk1s/cGZj/Sv1qK+vx69XmlFERERERY6BPPVC32gqU2cWTgoKxOPY+LEYN2lOQO8zKYe/lD/cZOfby64oByq1pgYxc51RPWe9COuJiIiIih8DeeqVvulVcN3kamk8iKVvNAABefLrnB5vxDSbj+kLAue92McDlVrzGv7vx2oNiIiIiIYM/iBUnhT9D0LZTH47An4cqmjMXY/tj81A2ed7sOTx18xIIiIiouLFFnnqlc5vb8V7xRrEyxz5h0QQjxbsYRBPREREQwQDecqsdg7WTo+i5d3i7MN99pPbUV//T5iBo/jNkp+BYTwRERENFUytyZNiT62ZNXeBCuCllnd34Am7y0kiIiIiGnRskadA+pdUdV/vDOKJiIiICg8DeSIiIiKiIhQ6taazsxMXL140YwrDhAkTCrJc0vz58/HRRx+p8lHpeHbjBvX81Lr16pmIiIgoX9giT0RERERUhLJqkY/HC6v7Qd7sSoXmf/zmn9Xzf/mn/6qeiYiIiPKFLfJEREREREWIgXypqp2DXWuXY9fiSjEQxbqV4rUY3lSr3y4tldgk62LtHKwQQ7LrzVTdEBWIWBVuvPFG3Di1AiPMKKKhIFYl9muxb0+dUMB79sgKTBVlrIqZ4X42YsJUUQdVyNPsaQhjIE9CHGe+0s9dHWpESTv8ZUI9d3fqZ6KSlOfAhSgbKtjv7SKW+yyVIAbypaqjE93iicGqlECXrIZEJ5r1CMqCbklKd/IcgYqpsrWtWFqanPJmaB00wYJqHTePAWlJ7DqF48eP4/jJNhTeXUHUb9IGo2bfHIJRatcpsV+LffvkX7hnE2WLgTwpzZ3yRuYEzpzTwyXNXOS0f1lYN3cXqp6/tKLrElBW4Q/WR0yoRGyYuGBsO4UuM65Q6QuSSuCLLojVCSbTW6pjuNimAw/1aOvGsDE1hZ0WQEREQxJ7rcmTIdFrjcyjvyuCo2/sw5mZy7FwkhmPVuzdfBDbzZAm88znoNoMBU8jc/EXYEbEDArdx/bhoQPe/co7r7gqw0bPRYbMZV87PWqGhNMHsXR3qxkQxtfi1fsn44S3/IkGbH6lEYfNYH8q2V5rZCuiCHDR2Wy1qsVQdWMFyrrbcPyUFcabaUV8b3Sj7bgd6Ov/G+6alw60a8Zc9EzbT2SAfs1FNMvW7sB10eTX+xXDu/R0ZpxuKa1B7KJnPTPS/zPq62Z8cWUNKsqAS3J534zHjXJAXEp0tZxE2wXxUpZNjTO89anoOhOVg3NXynpyatddt8F16K5vtY7W4ry6xTLsxet5pramWg9fy6rZF8yQa/2yZuo7tcjgZXrrLSmoTqyZBdbvADL7n7xYdBfDu5+F2+ZJYfajjMdmyH0Wch6jcL7lCwyvlttcj+8ZZ/arS6njx7uvefctf3k8zLxGZrnPZnNMeWfrm1do3vmlOzYTiFjTBe3bvmM08DNWbgOr3iWr7pNCHie51VlfjnMK6wejR4/+hXmdViwWw4ULF/DNN9+YMYVBluv8+fP49ttvzZjC8cMf/hCnT5/GX//6VzOmCI2rwrKacaio/XeYFhdB8quHsevD05hy4y24/d9/j7Zj7Tgtp5MB86pbUSaC8uX/+2MxzR8xcuIsLLw7hpEfnkKDmhmwYvFPEHmvHo+9+0c1za7uGJbPvAU/HXEab55y9i0TxMugXC1PTnsBi5ZNwgVneeqC4D4sruoQFwv78LSa5ivccvcc/McbrXKNGod7a6tQJcp/XYtTNjHd3Fsxf+JX2PVZ/6cVzZ9/t3p+5+131HPJ+PY8vr+qHNHoKFxxvhPnxSEpW+PHj/wOXWfOqGFJnqyun1iGHnEybGrtQEdHB7696lpUXDs6+X/iLITR5VfjBxe60On8o3DFqLGIjfwbznfE+z+1pCeOjk7xWSJfD7saY2MjAc/ypZGjy3H1iO/Q4yqDmH7C1bjsfIdv+vSuwNVjYxh+5Shc9ddTOHVhFK65OorR0b+h/fiXuLw8ipHff63nJ8sm6qmj42tcMVocU387j464twZ0nZVdXY7Yd+043tRqph+P8rFX4GuzbsF16K7vnrjeLh3nr8BoUQ/2tpIPe9EyoJgU7REn/Ca0mv8ZO3Eixv7AlF1PpU/u8sSvyiXn8z3GigDtG6fOsxCrqsYVbSfQ0mbK9O1VmDBuPEbbyzRBhwy6dNm/xVViHYfLQObEn3FeTSQD0+sxcZRVfjndtRW4dnSqzgac2f/+JvYn92bW+0xq+4fb5pLcTjVjhlv1IR6Xj0fVyHhyGb0fmyH32W9GivIPx/BRV+HC6VPoGXUNRkVGI/o3UcYvL0d5VBxb5lj37mu+dRafK51qu8iyiGPvMrn9WtBmxjnHbDb7rFrPcT8QAaazD5ltftW3qeNKBsLXl+MHIog+0dLmmrd/u4Qg98eaMRjuOgYux/iqkYibmeljcwSuFtv0klN+tW+PsT4bdfnH/vVEav1kucaVY4JdfrUPlaEsVo4R5511EOs5oRzj7elCHSch66yfj3MKj6k11CvZap5q6Y7jUHMciIxBjRmzYmYdyhIN2Ga1rG/ffRAtIii/c26qxXz7bk+remMDjopYuqymErPMKIyPYpx4ajlptayjFU/YLei1dZgRka30dou/mOZd8T+ROizy9rwjLgpSrf6taJRR/uhoapnUL7pOtaEbwxAbF1Mnwsoxw3Cps9VqjYlhvBrX7GrRcv1fgdNlLUPFjVNRIeKR5MlLnPhafa3QvRs27CK+cP5v2DBctFKQhl2pFpAdeQJOVm4Pur6+JGY0XIR8eSC28TVlsmHOarW70IbWzksYNma8qBlDBCfDxVN3wm6968Ipb8tgSF2nPC18XedUatewq2MiNNdiEVEwURfnkosUr0W5MGyUCJbMqJgo4zDZYmiVX5arrVtMJ/bVnHZHeXGQundiQNLZe9vmye3kaUnuEsF4cjj8sRlunx2GYRe/SG4n+T9tyRkPw/BBy0Jz1tP+XDLbvOwac0yLqcT6DsvxmPYT+4TeAJ4WbLFc17Dm2k5dCVX/o6KpCuv5y0n3dhTH3BcyF7QskjrmHGKZqdb8LiTkdKLyszpOQtZZfx/nFB4DeeqVN1f88AER2CfTZipRO0kcvM2tnlQVfQNp2Rgrj8bH6S3Hci6OdvFUfVf6rjBXTJXdQgbk8ze2iIsHYNxYK91GcF8UUP6Yk4D4cJ96XcCJMBZRX7le/Mb7se4/wRQucWI6fhxt3SK4qZbBmmmByvVk1S2OE/NSfg19sY9nvEtfdw3YSXNEdJQIMbrhOm8LPd9cFH+HY4Rzgr/QAzmmrCJfgW0PeuQCksR+JCOKQBfRY4IRFcRYw0kqeBJrcGX2e2Osyp3yU1bhXPDlT2/bPN12csnm2Ay5z7oCuksX4a3mQaHW8xLOe5vUxQ4kLj/NBUYMKr7tr2NpZAyjxD7hDnDT6WU7pXHhG/G5GyDzMsMdJ+HqTMj7cU7pMJCnvjEt6GXTTd/ryYc7F16RKTiuaey8e0crnti8T7XUy2Demde68eZtR4YeZjJfPFA+6Rtfh8mGOnR/ERTcZghW89Vy3K9kC7zMOZX5o8dxvKULl8oqRECf/4Ct0Iy8Ukas8tuJVAu0evjybeXFT7O5IdqZrg/1JdMePMt0L7IHbbKJ0tWqrlsV3UGokCHAzP4bER0AurlbUweD2k6hAuliPzZ7N+JKGbk6F+HWI1Mefl+JaHlYprrNmv4MssvvuscjtHDHSfg66+fjnEJjIE99Y1rQVfrN5h3+h5OSo248rUOZzH233t+rk9494tj4ipnmjQZ0I4oZ9wcE82mwS83BZL7az6VlqVBa7dKSaRPyRi7rJrALbTh53KQfXFdaP9SkWwHNBY3v4b3BTQQNJ8178uJHBQY5nORlEC8DCPktiLU8+S2/TQcfdkBhvjkJSGVI59I32e6NpvXaJaAlc4Cp7dTXQLzgj81w9LdFMp0qte/Yjyx2j/C8Ldd9kkrla7bK3Sy/Cc1BmOMkuzrrp+OcssJAnvooTAoNMOuGySIAiuPokSzTXM414iETzMfK9ajtMlUmMhmzvYF9bTWqxTJOfObtBad/Pfh8Perr67H9ydlmDIUSkO+phfkqewRiV6dpdUq20Oa7r/qRGC6L4AtqLuCiPI8Wa6ulSavwMV+Vp0sx8aXQhCUvfsxJPtvgRqeJiKCiPVPE5eT0NruDDk+U1iWjblcusJEulSCErlO6RdLR3ZZ7jx3+etf7X7YXGHo7lSGS6eDo07E5MEJdkPSyz4YLqvXx7P1GRuXNm9dZcVJOMm6AkMyxGvxtZ7bCHSc5X4j04Tin7DCQpz6KY+PHIrCeNAevWje2eulfS41i2g3ONLLnmYDUmlr/fJyLgOSvzqqbZKOYcU+tdcNqJTbdVQmcbvB1U9m/ZuO6MfpV2S3/iAf1SwpF59APG1PpaqGJVelW7uQNdM6JNHnzomwJd+ceu6ivrqUyXJPXvtxNi6v3Rkh106R49qZtFCBfUJe26znJbAf7xlWbuslUtrj1cgElluHtY98JyLNNN9DltwNOfXOpexWCAzEfp/yub1JiqJIz607dqJkdq0VSPHJq4TU3L3rr3X+chGRuBvbl64vtksplDntsDh5n3818jPeyz5q6zXzvgvlW0bqRU/baUjH8kthjc+HcO1ThOQ7EvpZtMrkKqsWsrIsC3SNRLpcYIY+TUHUm9ONxTtlhP/J5MnT6ka9Ey7s78ESjGZeOkzpjBjV3/+/eft/lfBunimB+tLtfd1//8Ln2SW/K1O4p/4rF/mVmZeWvUb9A9nLfgj1LfobX9FilZPuRt8iTXqb+3vX71olHfk3su1nUfIVshlRfyqq/atlttne+qUBfTZdL0OGkbJhBN3dfyL4+nIXsl2vKbPoE13UiTvlqOWbdzVfcQctzpHq40P8Tpu99d/3L1JhzGGH6B/evg3s7SN7eTwLL5/l63rfN1XKD94/eeOcly5OIiDLY/fun3Z7ubZncDtaEOe9D/cxXr77jJPw2l3zzC0g18m0n1zJD7rPtI1Td637wzf+Ikqj5WN0dnury71spwftH5vI5et9nffORPPNy1ZeqK6j5ioK55hWa76LZvY7B2y1gG3vmI/fXVlS6/9fs/97fIlDrlNNxEq7O/NPkfpxTeAzk82RIBPKUxoP4df0iVCeO4jcrN+CQGSsxkB8czgnEe8KmEuQEJ75A1QnaGVwQ8TgZOphaQ5SlB58XQTy6cfRVdxBPg0SckGSf9bLVjEE8OalW/q73vN1UEpUwHidDBgN5orBkSk19PRZNlik1K7DhgBlPg0S2HN2oukFDZ7MvTYBKVEAesRKr0qkSRXAvA1He8TgZMphakydMrSlNTK0hKgBpcn+ZekVk4XEyJLBFnoiIhhbZ9Z3dpV5fepEhGqp4nAwJWbXIX7xYWIlTEyZMKMhySfPnz8dHH32kykel49mNG9TzU+vWq2ciIiKifGGLPBERERFREQrdIl+IuejMkSciIiKiUsUWeSIiIiKiIsRAnoiIiIioCDGQJyIiIiIqQgzkS1XtHOxauxy7FleKgSjWrRSvxfCmWv029dH4Wrwq63ftHKwwo/LH2X4LsG68GHS27cpazNITEBER0RDEQJ6EOM58pZ+7OtQISmPW3AUDFJz3QUcnuuXzV3EcViOIiIhoKGIgX6pMsNfdmdDDBaMSm5LfFBSxc414aPMOLN18ENvNqPxxLsQSOHNOjSAiIqISwECelObOuPjLQHBIOBdHu3gqvIs0IiIi6k/sRz5Phkw/8jLX+/46lJlB2fp79I192OgN+GVe9l1Breit2Lu5AdeuXIBpzfvw3pgFWDhJBJnH9uGhL+vM/9jzlC3yc1B9+iCW7m6VI9KSaS5rp0fNkJD2f8w8zZAuk6el3Fd+exrv/3tZ03rrK9GAza80Bqe4+OrWUy71/mScEHVzZuZyVW9KpnkSERFRyWAgnydDI5AXAezKKPZYQeOKxTKg9ATzJghueXcHnmiUI0zgmww45c2YIpAXATuaD2EbZmNtjQjmIwm8t7kFtWLacTKwPyC/FQgTyOv5zYgEBNveINcJ0F3zE9MuBp5whmXAPDOOh5LvB81f0xcPCd/4IKquRgcH3c5FSKrOAurWCvTVhU/o+iEiIqJSwNQayqAVT3iC0O1HGtAtAt1pN6RawldMFYGyCKD3mIBU/t+eYyLojEzGbNmLilEmA3cVjAqRKNrfTQXDZWMi5lUItXUiyJYBrx1Mi7K+KwLbSB0WJXveEQH5Ld4gXhLT2sMyn931fhwbP5bDlajNSy8+lVgkgngZnDtBvLR990G0iDLPmGl/MyCI8usgXmpF42nxNDrKHmmIiIhKHAN5yo7Jv06J4trR5qWPJ+f+dIsVeOfeQ466cAjK529sEYEwMG6sucgYX4lp4vqg5aQdpIfk9PySD7XVKk2n/UsnOHcEB+k5lZ+IiIiGPAbylJHublH3Ma8f3lxx03rtagnXLc7uwL2fJTrRbF56JVv3y8egLOQFg0xrca2nK3c9HzKUKzIGNeYlERERUToM5CktO497qepKUXenKFu9bbPG6sC5+i4nEB7cHO5kby2qVT2KWLkeTCeVm26t5xsyhWiQZLhIISIiInIwkKc0ophdE/XkvgdJ5Xungn3xyGMQv12mmnjy7xWVshLHic9MyopJA6pWqTjpVKJW9gZzusHfE0+Aw1/Ki4QIrvUuOxsqBch9n4Gmy9Ld3Oq7OZaIiIjIi4E8pWF+ZMgOmGUvKr7UmgS6RGyb1c2qfdXYgKOJKGbcU2vlkldik+qdxg7IzU23k+bg1bl20Cx7rXGCe11+TKpO/Vqr7OkmXWqNaeX33ZCaFV2usumzsc66IFixWNZta+qGYCIiIqIM2P1kngyN7iedbhjNoAgy9/q6ixR8/aE7nK4UzXy+0uk2OmUH5j1vd4pmWM/AzZWu4y2b3UWjR8Y+4iXPMmUXlm8Bq8Q6tVvdQyZlmJ+TjhTEWz7ftN6uM029esuQqVtLIiIiKh0M5PNkyPwgVG+cIN6XE5++L3YiIiIi6jum1lDfqJ5hgrpINKk5RERERJQXDOSpb0x/674bSmvnYKG6iTSPXVASERERlTCm1uRJyaTWSGly5GW3lb78ciIiIiLqFwzk86SkAnkiIiIiGnBMrSEiIiIiKkIM5ImIiIiIihBTa/Jo9erV5lVmW7duNa+IiIiIiMJhIJ9HMpB/8eUtZijYow+vYSBPRERERFljag0RERERURFiIE9EREREVIQYyOfZ5Xc34Lqft6Qej73OSiciIiKiPmNMmWffvVOHP/+qWj3am81IIiIiIqI+YiBPRERERFSEGMgTERERERUhBvJEREREREWIgTwRERERURFiIE9EREREVIQYyBMRERERFSEG8kRERERERYiBPBERERFREWIgT0RERERUhBjIExEREREVIQbyRERERERFiIE8EREREVERYiBPRERERFSEGMgTERERERUhBvJ5dvndDbju5y3qMa7GjCQiIiIi6iMG8nn23Tt1+POvqlOPFx7Ad+Y9IiIiIqJcMZAnIiIiIipCl1VVVX1vXqdVXV2NtrY29PT0mDGFoVDL5Vi9erV5ldnWrVvNKyIiIiKicBjIExEREREVIabWEBEREREVHeD/AzcSDN27ruEHAAAAAElFTkSuQmCC;" parent="NtMyg8WuWna2PfFkRvWS-9" vertex="1">
          <mxGeometry x="941" y="152" width="488" height="110.03" as="geometry" />
        </mxCell>
        <mxCell id="NtMyg8WuWna2PfFkRvWS-5" value="" style="shape=image;verticalLabelPosition=bottom;labelBackgroundColor=default;verticalAlign=top;aspect=fixed;imageAspect=0;image=data:image/png,iVBORw0KGgoAAAANSUhEUgAAAYcAAADyCAYAAACmhgm4AAAAAXNSR0IArs4c6QAAAARnQU1BAACxjwv8YQUAAAAJcEhZcwAADsMAAA7DAcdvqGQAACtxSURBVHhe7d0NcFXlnT/wr/ZFu5QbEwk2WISEIO6Cm4hGBioEcIogAtIA05b9Q0FwXNOWWhwGCN3p7BrC8JcqrfHvKIKwi+0AWQrognSWF6VkMBJhgVnAmKCsSU2AmEuz9sXa//M75zn3npebcN9fku9n5nrvPffcc8+9wed3nt/zdt2gQYP+iqR4BL+Y/i0MkYe/r8PaAz/FIWM7ERGlmyQGByIiyhTX63siIqIABgciIvJgcCAiIg8GByIi8mBwICIiDwYHIiLySGJwWIRpv27EUwdPYNok9bR8v3qsnv96K/LMHXqVvMoTxvdfWrlIPVuDhfJbWL9NLPJ+jv+Y/rpx+0Vv/GGJKC5SV3N4rw3tct92ES3Ght6sAW0dct+K5v3Ghuh89afYXjIE79dNxYO7p+IH/GGJKEpJDA4b0Nwm9zEWgD1ES3Orcd/evMG4j4fxA/4OfX5fhxoGBSKKUepqDvsvGjWH9tYG83mvpgNnRxuazQ1RKfT10Y+IiGKTZtNnSLvESoxq24ZV2wdi6YrRyNavtB9djXUVzqtsyduXj/HpZ6H3Mdo2ZhXqJ6IBOydMwnH9zOI+FhrUOSxerp9YpG1gDgr0M8CPY1XF2GOrCd39UiNmwnv+jTsKsLFaP4nYfDxdMx35/no8u6ASb+mtbovueR3f8nHeKiKKXXr2Viqcg6dWDMf5qgKsmqBuOxqQPWYlFpbr1xUphMvHtKqCXu9TVQuofcwGXm3SViwtrjdfN26rcayjEDMP7sfdehdhBgaogt7arwDVrZMdn2c2oM9BtgpAgX2OAqNWNDr3E8b55+JQYD8/CmbF0Ni84E7ky71vGMaVGluIiBIqPYODcXVvuyKvrkejusseoAt+VeiPV5WBxh22GsD+uXhVFcLZY+YEC361bZ3j6n8D9vxG0liFKLIV6AP6qxpDxxm8Y6sBtFQU2670VY3mm+oDVW3CXjNpqXhOBRug4JvuHldSowieW8vhM2iHD7lD9YZIbTqFJrn3n8Obh40tREQJlZ7BwZN7X46N6grcKpjzSocjWwWQk640jdnI2x8DurtCt3pJ2TS3+oGs0SjvqlvtpAm4PStU+8gGvHNG3puLAXqLwRVoYrcZT5aVoayblJJMiV6kTqLzfw4xpUREMUvTmkP3jCt9dfU/0xgbYLs52hZMkn5y7GNrB7BILUFSV0aAsPZ7aY1+NajrnkXXCEgJJetkyLiGIpzcPRWzzzM0EFHsMjI4GFf6Ruop2EYQvAXTUUbjcKGkeGyvV9V6ag6G6kmBfXYamac5IQNEaKnsnvsyfqCCwoO7T6JIBYntt4/X24mIopeRwSGs9BHWoEgqEg37HL2JwnF8sQ4QuQPNNNP+gzgvbQvF7mCxCPcMV7WYhnpP76f4kt5KNajZVIGxeovXyzjZDPT5+ngwPBBRrDIyOKB6G451+DBqhbPXkZMedVw4MriP9DjypJWk+6z7ODqwBEZv64ZsVZuw90zKq/w+RmWpmsl2d5fXOGNvJSJKsswMDlJYPyxX9yHaHQKpINlnGxrtbRPfbEO1J60k+9WjyH4Mq8uqvaeTpJ12NKBgVnA/syutc5xDQrC3EhElGdeQ7kE4CI6I4iVDaw4USoO/Uz8iIooNg0MPcujq74CvlqCMU3UTUYyYVuppZD2HkiHGQ5m6m9N2E1E0GByIiMiDaSUiIvJISnDIz8/HjTfeqJ8REVG6Y82BiIg8GByIiMiDwYGIiDwYHISxylujnnpD5loyp8fwrPCWrlJx/iPGYfuSudg+c6B6koUVC9Rj9XztCPPllLtlBF6R81syDvP0psQZiLW2z7qv9CHbb0OUmRgcPDaYi/3Dj7b3jA02soZ0o3Mp0rTT3fknSgc++sS8bzc+Owq6ME+b4BKDI5dlSnmg84p5T5SJGByEXh3Ou9JbhkjF+bddgUzWkbYF4Men8b31WzF7/ZvYojcljh/t8jP4rxjL2RL1BAwOIZiLCaVyAZ/YpOL8G6/I/Oh+fPSx+bxX04Gz9bL8JkSZKSkjpGWcQ0tLC/7whz/oLZklr/IEysfI0qShtR9dbaxvbe3XuKMAGx3rW0s7wEqMQi2qH56LlklbsXTFcJyvKkbzbFmtTu/WoV/XT036vVn6qSqAj6n3xTJN+Px1NZg+uBP1P5+HyoRPAS75+HHmehSGDtT/6jVU6SAyb+ZcTLvNfBxK039uxbLT8sg8Tv8Tr+F7l4uw/f5gPj+4jyLpqW8XoY9+Cv9JrN90Gkf0U5N5LKj37b75ISwptn7ci9jjqWlIe8pDGBniz98p53KYAYB6JgaHiEibg7nWgwQDL/P1goZtzrUgjGAwGrDep58biw4F9g31Xu82MwAhhgAhq8pNNwrrzrpnMW/NW+bmhNCB4cM3MXvnxeC2BVnY7S6wdaHeai/oHexBJliIS+PvkmI4Ao7FCDw3dR0cjGMFzk0HAdj3924zPy/LGZCIeiCmleJqOU4a60/bVp9T8kqHq0DQgEPugOIIBMux96jf8d68yskokLWybYGmpeI5cxW82eGub+22GacuyH0nztUmMjAot2Shv7pres8KDOIilnkK6whITcB2dX/k7AX1TbKQnas3REKOFQhaHXirUdUCfDnqN9duGYhhqsbQVBc83yOHTxoLL+UPZU8k6tkYHOLs+AkjOqAo0I2063WmG08EC33hXBu7q/fp3kjW+tZR2Ly0DGVlSUgpfdwB+Ub598exF9InHc7Aohueo7mK72y82H2Qys0Jpqdc2BOJejoGh3gz1rcGCor1lf2kCbg9qnWmC5ErqfDCOeYYBtst0EaR9lQtYf1rqFflqAQIo+//koew4hb9cro7fdI895IRuE9vuq+0CPmqlnHuLNsaqGdjcIi7DXjnTDA9ZKSUOs7gnYjbBxrQJuWPpJ4mFHhvnobrdNWBqk3SpVTdfnXSSAGN/HamBAgfsqUh2leEJUZgm9tl+wZRT8PgEBGzwM7u3/2le0vFPjQaqSUzNdR+5mBYBfndxeq4gUASe/qoK9JbqaZmCypK9YZkkRSQDhCeNgKdgup/c6BbVsqZtQRp/NbBzbjFHhjM378GW5aP1VuI0g+DQ0R0gV04GdOMdoGumA3TBbOkC2qIhuhQyvcb6aLG3wRrBMe316I9azTKjWkx4mU+7hws930wbHSCC6cR4/BKqbOwv++OweqTQ42kNgeS9SkuSsJ0F+ExRzr7cGtcazlj8fUc81Gfkhnqr0GUntiVNWLucQfBcQ4OMt/RLFXaO3okafaurAFdjV/Q3Vn1M4t3LEX4kjnOwer6GRRqLIHF3l3V5B7n4OwW6+X9vKDguATzWMaYCds4BfO9fsf5dTkO4xrn0a0FT6PmIfmWTdhd9iQ2m1uJ0gqDQ6Lo4BCyENfBoT2GAp4SzwwMzkF7Bpl08P6BMQyC02NN/PV4dkElEtyhmCgqTCsliNl+UIu9LPwzVBZuvUnd+S/gLXcbg54eI1rz18kgRFVze4WBgdIXg0MCyCjmmYV+HHs+U3oUkZeeadY3GGMdbQ5ZWPGgTM8RRXdWSSfVSEpP0knJmLqEKHpMK8XR3S9ZYxCuMf8R00oZI2SbQ8j5moh6FgYHIiLyYFqJiIg8GByIiMiDwYGIiDwYHIiIyIPBgYiIPBgciIjIg8FByFQXslaCMcGdzJ1krpuwMLBgD0VDBgM+dXC/Y1W80GT+KPnNzX3N91l/DyJKBQYHDz3zKvxoe8/YQF0Iv/CPjLkiHtDeKqvqEVEqMDiI99rQru7SrzDSV9Q9/gpaL2zU0YZmc0MSTMSynWvxgu22bKF+yWXKz5z7rV1pDIN3Gv8drLXt88LOckzRL9kNW/kT2z7q9rOJ+hWi9MLgEEJzq8zj34rmiFdvo7iwgnVzGOtgREUCw2RgzzI8NtO8PVN3FQXT3AGiEAs3r8WM/A+wS+/32J4P4Ct51BkgFpbjhSV3AXUv6uO9iLf9gzDDFSAkyDxRAry9Xh9r/bvw509mgKC0xOkzwmHMhTQc56v2IXeFrK1gzp3UPFvPpdRRi2r7sp3WWg4BDdg5YRKO62fWHEzudSC82/VaDqHWhHBzf6b7PYHvYDtv4T534Tl/i3yPehSFWF8iKPhdJe1UPqbV856Q619EIDHrUZgBo6BpHx778QFzkxT603JUYf4v2HjI3CTk6v+JkisqYFRjrxFAHsW9l23vM5jH66cCxrLVqkYqNQsVQC6pgLR2o95FdPEZRKnGmkMEbn98MtqqVuNYh089PoGZUAXwDvU/ftZw3GOtDCeFcHG9bb1n2b8QM225+eOLZRuQPWZOMF+vCuRQASMcRu5/Vn8VsKzP3IbGwjkh0lE+jFrRiPGtq4P7uVea04FB1qEI7CPbJYgYhf5ybNTfrfqo1LAkGFj7yi0YBE3y3ecA1vHU75U95vvXWEmvO8lbyW7KiEGAvwG/dRTaEzGjpK+6H4Q7pZYxvgR3+IDG0/bAIAHkG0Yw9A0rwTB5PqZQ/fof4JQ9MEhgKVWfgb64Q71OlE4YHMLmQ3bbvsBMq9lZ6oo4cGXuQ+5Q/XD/XKxzXOVvwJ7fSFuGrCltbjG2PSyFrio4jYJZ1RDkSl1d7Ud+Rb0GU8b4VFB5zjYLrCrAJWiFWs7U8Rnmcqb2daq961Asx14JAvYAGCHHgkfV9ep7q+BaukhviNRmnLog9504VxvH1RDG34J+6s5/6UPzufrb5N2s7i5/jHPmBt2uIOkoWSMc6Pc19VsV5KhvcxWXjAhqMtJHwxqwq+6q+qeRYwSJgn4qoPivmIHWIDWLR3HHuX14W/28vn6hlpsjSh0Ghwg0nrAV+pE0nuocupNVgKsrfCPloq7Ar5U6CqV8pHqvH+cPu4KK8Zm2oKU5voPHIgxwL/wfEG0bTANOxnla8s1Ly1AW1/UQ1BX8gruMQv7sUYmWXkZD8pIcHJzpSgs5mI3cEy69iMfm/9IWCFwklbTzG7i0fhmWrbaCEVF6YXBIAGk7MPrpWzfPetFa9STs1GVR4w53OiY8eQP6q/+a6aKwPrNbupaTNRpTArUcs2aChvqozi/96TYDSQ3tCZ33t2oCzxhtDF0osGoVUuCHDjCiQILMNGDXTLYxUHpjcIgzs1FZGqxtefiq2hA1B7OtQPZtbPCjYNaJqPLw5pgA1+fZbpEuJmQGG1WIzbICTZgN4hlqys/MwOCve9FVI2hAy2V1lz8ZM7DPqAkE00tmCurS71QQaLyifv2+uHdaIc6qmoD9GPZUUuMlSTHdhRmeIHMb+snnB9JZROmBwSGu1qBI2hUbgm0TXZq0Fd/VbQUbF0sOW139P741kPsPWxfpo+hY7RdWg7W+dREYzMDUHwOiblyOjvRWqqnZgopSvSFKUiOYkW8GhlBX+3tPf6D+exVv73Y1Ntsblw/V4ay0yzf91lUTmIg75djn6oygcu5ogwoiKkgctgUZsfBvURAqnVVagS018j2fxny9iSiZGBziSg/mKhzp6IXkTfGswULZ1lGLV43GYd3+kDUa362MsKF2/1wcUm+NtubhZJ5/dv8we87owDRqdjIH6cWnt9K1AoNh4xt4269qBQu+Y/Q4MiwsxxMlfdG4x7r6b8DGwyqIqBpGcIyEpKomo8D/Ll62jn3olzjYpP5O02xjH6SBe9ogdQ6/9KaYCrLVNxT5uH95YntlEYXC4BBXtl5IVu7/m22odqSVZO4ms89/429s4wt0+0P2mJVY6g4QRqO1lebRN1v30+OLpVspvO0Ov460JqLO/3l1rqE+72CI4CM9swKN6tZ+8Z9OwykOvZVUoTxBBQYhA9ocI5bVLVjIq4J//ot4G3fhCet1VZg3uscqbKw2BsfJIDrzGI/iXryLZ+ypKGXvj5dhV5MMjtP76YFzIYPTpl2ol6oGUYpwEBwFGQPlVI3G08YgAW0lRmU5B/NRYo1dvgU/KumDptfK8OQmvZEoSVhzoKChuUb6y9vddYOejJCSprQCi1VgwIXdDAyUEgwOFKTHYxQUu9oQ9OjtntudNZ2MRcWmGtT8cCRQ9yzKlm7W24mSi2klcrJSS/qpxTHKmYh6PAYHIiLyYFqJiIg8GByIiMiDwYGIiDwYHIiIyIPBgYiIPBgciIjIg8FByOR4Mi+QMV+RTBVhzhO0MLCmQYyM43c1MV7w86ybZ26ljGV9N/3drd854jmforUIX3nyfdz6lLo9+W/8x04UAf7/4mFNFeFH23vGhgSyz1kUnCI7lsX305q1Il7bxeCEgwn05e+tQA5q0bJqCD56+h/wud5ORNfG4CB0odXe2sXUzYkyaQJuz1Kfe3RbyGkpPCvKGbd4TM2dLFagjXaJ0VhU4YZCFeIPMygQRYPBIYTmVpkrOXkFWntzNzWFjlpU22oVOxvMJUEzMvW0/2LygvCtA/El/ZCIIsfpM8IkS3qWDz+D6ocvYoosnam3y6ppnjRQyPmJZCnPYucKcXq/9i7mLTKWHM1VweFh27oPjlSUTJ+tn7dtw6rtAx2fG+rczGVM9RPFvY/xOrzHCjW3kvGbyPrSlliXE5XVz344En0u7I59wrlb/w05/zgaf941BFfr9DYiChtrDpHIGo1yFRigCkrjSn5Hg7E4j6PhWq/8JgW+dbUv+wWtwUIrRaQL3+B6zXK71mI5XUyfLQvurBiO89Za0p5zMz/XCDbWeVXVAmof+8JBBtexqo9617g2AwMca1dXt06OqRF/7Ohh5upng+/k0phEKcbgECHHFXT1NhzrsE9xra7iv6kuy9UVdNczmC7HRlvhLGkWOaZVwK665mI6izAgV911tKHZ3KBJTcJWM6muNxa2zx5gpp/yKier2o7ax14L2T8Xr6qCH4WTXe0YzlpOS4W5xvXtpcFU1oD+qsbQcQbv2GpCLRXFMc3c+lbtOXTKgwunwImqiVKLwSEiDTjpKPz0VXzuQLNrpm5g9i6WEz93vyQpJVV4P29PNSmeYGEGITNltAj3DJfC3L2PKtAPn1EByofcoXqDcBX68r3da0sb7TJSk4pnt9TDlZhXVhaXNQyuLx6Or6jz/iNTSkRRYXBId0YqK5h2MtNCrraLcHXThdSqYYRLaglGusx+fu70VApcP/VdY1zDTajGR6sewJ/0diKKDINDunP1VlrlaJyOn257THWlelLgvHZKs4q0VaQ4QHz++l0qKAzBJyhXQeINfFlvJ6LIMDjEZA2KClXBeuagWWDrrprOq3DdDpFSG/DOGWlbGOlp7M4rHY5sT7rMJYx02fHFOkBYKbZoSG+lmhrUrIu9OfrzE2fwKQpxQ4neQEQRYXCIwd0vSZfWBhwKdAVdjpOqgMweMydQCBttBPAbQSOVzEblQsy0X9lP2orvjvF1OQjPpILb46ORrWowewMBRLrPuntVmYEyltHP7K1ElD4YHCKiCldP/t/Zu+j44tU41hHcb3zraqx6/ox+NZWkgXobGiX1Y30H3eXWM07D0c6hx1A40lkbsOfhehQF9pHbHGQfVd81hnEO7K1ElD44CC5MZr/+Vj3wrOcKPfAuA3EQHFFMWHOgnumji/izfkhEkWNwoB7qfXz2CeAr5VTdRNHg/zfUQ23Ap09X4QpGI4/rORBFjG0ORETkwYspIiLyYHAgIiKPXh0cJN1144036mdERGRhzYGIiDwYHIiIyIPBgYiIPHp1V9b072Kr14eWxX1kZbah+/HUrEJzGm/b9BbudaFDrfccrrhOn+FeS9t13kGyhKk5iaFMT9JsrU0d65rU3RkxDtvvHwh8+CZm7/RjxYKHMFJ9ZNN/bsWy03of6tK8mXMx7Tb9RBi/40X9JE5uGYFXvl2E1kz+m2TwvzPWHDLJe23m7K6umU9lumxjXQW97Gja2D8X6+zrPYSppbnVuG9vjeBNMenAR5+Y9+2h1ucmBzMwdKD+V1sxe72+xTsw9EiZ9e+MwSGt6WVI0YrmaFZ+yxjmMqShljFNmLYrxgywnVf85vNQ5Mp1yVxsd91eKc3SO/RGAzFCagwfnkTVx+YW6kY4/87SFINDJtGLCSXvijpFdA0pqtXpotR4RaKTHx+FKPAkBWBdIa8/0YE+xQ/18gCRmYVdOuju31m6YZtDT5rWQ+f4ZY2G0G0OVhuGfqq0H13tWM8h0ObwPPBdW3tByHaMct0GYummjSCebRnz19Vg+uBO1P98HioP642JEDLnPRBrl4xDvv8k1m86jSN6a2C7fgZcxJ71b2KLfmYJL1fvPpakcF5zXKkbx4F679Es4xyNRZKU6HPZ1/5Mk7lf/xOv4XuHpaCLzX2lD2FJcfAfZKf9uLbf//RQ2+/m+e0Vva/1O3jP3zxvqGPtvtn+maH+TlmBtgE3x/mF+TfPVKw59CJ3v/R94HndPiG3HQ3IHrMSSyvty5qK4SowDMf5KnO/6qN+FMw6gWmT9MuKrG/x1Kz+OKb3WWUtJJTwNaTn487Bct8Hw0aPNbakxCcdwcLJSD+ZBaZVw9jz4UBMU9vm6V2EFIQj3gvWQmb/6iQ6bxuH7TMH6j0UacB0HWv9CWDkt+di7Qi9j0Xe++0cHAjs14H8+x/Cilv06+G65mdKYWml1czCUGpPwVRbFJ+pj7mkGI62iw0o8hwr/34dCI193kSTrwiLHDU3VUg/CGzQx5Dbng+z1Pl7z0uOtSTnpN7vNdT71d9pwQjcp18PBAaoAKSPJb+rkMDrCFxh/M0zGYNDL3J8cTH22NsuqrfhmPq3nj18gnPdZ/X/3XnpHaX3NZcY9WHUbKvgX4MpxvKiz9mOtxwbVbBB4WRHEIm/zTh1Qe47ca72LWNLMs2baRaOTe8Fr/bnjVFXrOpqdoPtSnrLTlWIqUJroq0QO3L4NedV/cenceBDdX9bvi5QVMFUYvZssV+VHzn8lirEVMFWYi/EhFwdB69Uj5y9oH6VLGTn6g1hCeczO1C1ySp45XuZV9BWoSiFbMTtDyOK1JW5t3Zy5PCb3mM5alcXcVr9Zn0KBtp+i4tY5qpJbDmqAq/6bsPusAcRRWodgWN14K1G9Z19OSjQW3DLQAyT3kR1weMdOXzS+M75Q4NBPNy/eSZjcOjVrAZvl44zeMfRAK4bjHMHmkGkfKT6n8mP84ddbQJGW4EPuUP18wTZvLQMZWUJTinZyNWmdZU87TZJHTjTTNJA29l40ZnmkHXDVeHaJydEbsLGzEFrumDy5vNDFGLCfwFvRVoou0X6mXEyTwraMM/fHojD9nEHzD5vTt6/k0tuji015RT8jWL7m2cKBofeRNokHOs+O8dHdM0ZRPIG9Ff/VTWJFc5jyZrUgTENPYjVIG2mF1xXhrdkQX4NZ5rFTLV4c9aSo7bvI2kV71Vm62VbwHDw4daI0zfhSe5nZuHWm9SdPTUXI0nZ2X9XK/0VsdMnPbW0+0qL1LE6cO6s/o0i+ptnLgaH3sIakCaNxlabg7qFN/5gEQZIqkKPrzDHIcjAvOBx7LdoB+ClOyvV0qe4KJhX1leozjSL7RZIYejGS0lr2F638tnhSUUvl0R8pu7vf1OWK00WHatR296rzEp/Rc6HbCngfUVYogt9s13Elv4K+2+e2Rgceom80uHqql4V6NujGHE8aQJuVxe4gS60SUofdUV6K9XUbEFFqd6QNB2oqpP/8e21hzBTCSPyzbYKWy7b4+OLOCdXrbbctikLYwvU533YFP+eMKn4TMVIp/kGY2zMtRJ9niro7o7DiGOzlmCmDoMFvrtNJUHpo9IKbKmRf9tPY77elEoMDr2EebXvw+2lVs8k6dYaTlpJ7fe4qnF01OJVq8vr/rk4pOKEuwdTcqS4t5JOOwRrDzpg3Dau+7EPejCUo1FzpjutFDyWvWfSfaVjzcbbo4m4Ik3FZ1qNvNKjyN2ja1yEPZ90LcQeaHRPomjSSkcuqz/uNVNpYf7NI1WQrds78nH/8hT2xNM4ziHjxzlY8xKFYs5VdFw/k+6nxpxFmoxdOFnsGn/gHrsguhi/4D6ewTZ/UsjXNff4ikikdpyDoufLkbSCu0++szHT1RvHmmdHk/dvwFgVIPzO/vGu/UL1nzfGOdzk6u/f1fmGI4zPNJnpsfiMc9DdRm3/REL9pu7v4/3u7uPIuTdhhOM8Q5+3mZJy/v6esSgW95iUcP7mERmLik0/Mr5HZ92zmLcm+b3x7BgcetIgOCKKiRkYQhTwoS4IEmDs8i34UUkfNL1Whic36Y0pwrQSEZFB96IK1cVWpwUTqrQCi1VgwIXdKQ8MgsGBiMgQov3CkIUVD0r6yNadNa4knVSDmh+OBOqeRdnSzXp7ajGtxLQSEdmEbHOQLsju+Zx6OAYHBgciIg+mlYiIyIPBgYiIPBgciIjIg8GBiIg8GByIiMiDwSGtmfMfPXVQz2EkU1vI1Ni/3upcnCcFZNlP+3TdC8v1CwlkrD6nPstcuU6mDbH9NknwyD/9DRpe96nb3+BfJ+qNRD0Ug0Mm0QvvW1NnR8Mo1OMQXI4v1lN0V9Wa55R0egEitKLZsTBRgiy+AStGAbXr/Cic+r/4Pwf0dqIeisEhrVmL7CSpAExz5syyQHtzdBP2xaLq728AGv/IoEC9BoNDJtl/0bhKD6yr0KvpwNnRhmZzQwJdh6/frB8S9RIcId1DRkh7pse2T7NtrQJnPvPS02xDH0Om8nau5iZtHysxCrapvS362O2e91j0ewPT3ssKcsXY464Jec7ROd145Obj6ZrpyPfX49kFlYht8uPr8K+v9sXoy50o/MFf9Daino01hx7ADAxwLNtZ3To52Ei8fy7W6e3GsqASDPRz46YL/JaKfWhU9wXFa+RdQdZKcGcORtjWIY3GKjC0BZcmrT4KjFrhakTWgQFHVwfPqaoN419ynUckFtxpLvbiG4ZxSV8xjijzMTj0AAP6qxpDxxm8Y7sab6kojmIt5+U4KcGjcCTuNjcYzCVGG3AowsV58iono0BqALaFgloqnsOxDh9GzbYV/ENzjSVMzx+2HV8CWogFhsK26ZS5hrD/HN5M5IJARD0Ug0MP0NzqB7JGozwevZBOGNEBRYGuqYtwz3AVfBrqI0zxdPU+3VaQOzB4rnpNak+NIiab8WRZGcpiTikpE7+I4arm9P5/MaVEvQeDQw8gtYRVO1ShLgHCGnsQbUqmepu6srelloyUkh/Htkd6FV+IXGlnKJwTGAth3TzrVhtpr21oNAKEtd9+R+0lJSZ+CfUyrmGR+lmm+vHAS3o7US/A4NBTVE8K5OuNdgUplKMKEBvwzhlVE9GpJSOl5EpZhUePQ5CGcasdwX5zN2xjOTZar0mgU8FlZqoDxIE/Y6QKCoUbgHIVJN5YrLcT9QIMDj2QDFAzAoQ9daOZKahcDNDPQzEbpiW1ZKaGIm+IFiHSR+GSQGcEiP4YEHWaSXor1aBmUwXG6i1RO/AZzqhAN+Tvv6A3EPV8DA4ZT7qKuq+w16BIUjchRlKbA8kKMd6YgqIrZsN0wSzpghp5Q7Tl+PZatEuq6xo1GOlt5Z5+4+5i+QIxDP5jbyWimHCcQ48Y5yBdRuegQD8T7UdXY10XhbpnTIQe5+AIJDKP0yxVQNvHSwR4Py/IPT4h9L7usRQyrYejLSLUOUWE4xyIYsHg0EMGwcWdDg7eAXG9EYMD9T5MK1FIRlpHXb3v7fWBQfwV/3NZPyTqJRgcyEPSTjML/Tj2fCxpnZ6loe0zoOAGTtVNvQaDAwVYazSYU3GEmP+oF3v5n/8XVceA0Uu5ngP1DmxzYJsDEZEHaw5EROTB4EBERB4MDmlKUl433nijfkZElFwMDkRE5MHgQEREHgwORETkweBA0ZHpNWTdBWNSPZn8zxwj4Z5ALyLWMeOwaNE1JeL8iXoQBgeKAz09N/xoe8/YkGEy/fyJ4o/BgaJjLO0JtLfKugtxYi1YFNNsrGFKxPlf00Qs27kWL9huyxbqlxzc+/0EC8frl+zGfwdrHfuVY4p+yW7Kz+z7rMXalfbpb4lCY3CguDAWEYpl/YUUS/z5S4E/GdizDI/NNG/P1F1FwTRXgDAK/MkoaNoX2G9XU1/cu8QVIBaW44UldwF1L+r9XsTb/kGY4QgQhVi4eS1m5H+AXfpYj+35AL6SRxkg6Jo4fUaaTp/Rc6b2cK/n4PfO22StHWEJtYbEpK1YumI0svVTO+/aFdKGIAsV6aehPjNC89fVYPrgTtT/fB4qD+uNMTMDhhEIfnzA2CJX+TNufhfPzP8lzhlbhBTyj+Ley9Z+7ucW83j9VMBYtlrViCSATMvB2+v/BRsP6V2UYSt/gidKrqiAUY29ehuRG2sOlEA6MDjWkd6H3MddDc6B9a9X45isOx3K/rlYFziGeas+qq72O2rxqiMwyGeqwNAW/Mzqo8CoFScwLYYlR+8cLPd9MGx0zIuOdmMi7sxXoexcnS0wKAsfwL2yNlP+35q1gvEluEM9bzxtDwxS6H/DCMK+YSUYpu6njBikDtaA39oCg3zGjJK+6n4Q7gyZ0iIyMThQ4kwaaFzpN56w1wKWY2M82hRUTeK7Mnusa1rxvEp1JS6r0dlqHi0Vz6mg48Oo2d0vV9q1zTh1Qe47ca42tjXlHMbfgn7qzn/pQ8fzS78LtoPIVf4L04Bdez5Qz3KQJ6mlghz4cBWXGo1dDFLjeGJYA3bVXVXRIUf9BoXIu1m9cPnjYKDRKSvskTXCgX5fY2qJusbgQImz/6LR6FswK95dRBdh2uOjkd2wz5UqWoR7hqtL6oZ62zKlQvdGyh0YdRfZzUvLUFYWz5RSIRYuuMso5M8eDdUobrYXPNHvt3is2/SP2Xg94dKLeGz+L41CPxQjyCzJwcGZy7B2o95I1A0GB0ogVUvQqSIJEMa4goOxpHdMeZXfx6gsZ+3AVIhcaWconKM/K3hzrE+dcrrNQFJDe5ztASYp8B/FHedUge9oU3ApsGoCy8w2hi5YtYpn2MZAEWBwoATbgD0P63aCqlpVk/DFlv830kk+NO6Y5KodiAa0SZuFo43DdktGF9kwTPmZGRj8dS86r+IPfYxL6q5gmrfAH/a1HPXfK2iRQNJ4BX70xb3TCnF2vbMmUNCvrzrwFVWDaECLLG2aPxkzsM+oVQTTS970FZEbgwMljzQq6wCRO1Rvi4iVTtqGjSHXto49fdQV6a1UU7MFFaV6Q5SM3kjS6Gz1KHI4gFNN6s7/LnY5Uj+F+MYwVeg3/bd55X+oDmel523Tb121DmeD9t7T0k5xFW/vdjVcjylUf4EPcIrpJeoGgwMlTvl+LK1cpJ+Y8kqHIzvKkchdp5OCjm9XwSdrNMqNaTHiJT69lboPDKa9u9+F33cXHrGNQzBrGh9gVyDF1ICNh1XBr2oFwTESkqqajAIVWF62jr3xDbztVzWMBd8xei8ZFpbjiZK+aNzDFBN1j+McOM4hofIqT6B8jPTDtKjCfYIzJSRrV3fVJtC4o8CsJXQzzkG6s1Y7UkbusRWmwLGiEPM4B+kptEQaoENr3GNLD3n2lUFsIQpzYxzDIP1EUYHBOT5CBNs3LI7PIuoCgwODAxGRB9NKRETkweBAREQeDA5EROTB4EBERB4MDkRE5MHgQEREHgwOaaqpqYndWIkoZRgciIjIg8GBiIg8GByIiMiDwSGtfQFvvO5Dg9x+8QW9jYgo8Rgc0tpf8MBUPwqnduL9gj4MEESUNAwOGeEv2HbsM+Dm6/GI3kJElEgMDpkk63pwSXgiSgYGByIi8mBwICIiDwaHDPFyy1/0IyKixGNwyBTvfw4/bsAD/3Sd3kBElDgMDpniwJ8xcqofb+T2NcY91DNIEFECMThkiolfQr0KCiP/S8Y9+DHynxO+9DcR9WIMDhnikfu+BB/+iPqX9AYiogRicCAiIg8GByIi8mBwICIiDwYHIiLyYHDICF/AnFFfBBo/wwq9hYgokRgc0pq1nkMfDOn4FFU/4ChpIkqO6wYNGpTwDvP5+floaWlJuwXz0/W8iIhSjTUHIiLyYHAgIiKPXh0cmpqamFIiIgqBNQciIvJgcCAiIg8GByIi8mBwUK6f+i5ufep9dXsXX7lVbyQi6sUYHJTPX78LH60agpZaIOcfGSCIiBgcbD5/fR/88OGLA/QGIqJeisEhhC/1X6QfERH1TgwORETkweBAREQeDA4O7+OzT/RDIqJejMHBYQP+cgn4yujZ+LLeQkTUGzE4uPzplSH46P+14avGuIc3GCSIqFdicHD58vdUUPgO8MkqFSRWPYA/6e1ERL0Jg4NDFW4oBD7970P4XG8hIuqNGByIiMiDwYGIiDwYHIiIyIPBgYiIPBgcbK6fOhk++PHpiQ16CxFR78TgoFjrOeSNVqFh11349CP9AhFRL3XdoEGD/qofJ0x+fj5aWlq4mD8RUYZgzYGIiDySUnMgIqLMwpoDERF5MDgQEZEHgwMREXkkMTg8gl9Mfx3/Ibd7HtHbiIgoHaWgQVqCxLcwpPnf8eA7L+ttRESUTlKQVnoZNWc7Ad9AjNdbiIgovaSuzeGrOSjUD4mIKL2wQZqIiDwYHIiIyCMlweHQ1d/pR0RElI5SU3O4egWdGIIHbmeTNBFROkrp3EqL7nkd3xoAdJ79v5h9/pDeSkREqZaa4PDVn2L7xBL8rm4qftCitxERUdpISVpp/IC/Qx+8j5PdBIb562pQU1ODLcvH6i1ERJQsadpbaSy+nmM+6lMyA/PNh0RElCRpGhzeQuWbTfoxERElW5oGB2XTKRjhwd+ORmMDERElS9oGh/nrpiMfnah/pVLVI4iIKJlSEBweQdkdfYDmk9igtzgseNpoiJ4+uAm7y+ah8rDeTkRESZPErqx6qm55+Ps6rD3wU3BkAxFRekrpIDgiIkpP6dsgTUREKcPgQEREHgwORETkAvx/rSh30G0E0+4AAAAASUVORK5CYII=;" parent="NtMyg8WuWna2PfFkRvWS-9" vertex="1">
          <mxGeometry x="941" y="270" width="251" height="155.35" as="geometry" />
        </mxCell>
      </root>
    </mxGraphModel>
  </diagram>
  <diagram name="v0.1" id="0p37Yn_E_UjJNG8I7tlY">
    <mxGraphModel dx="2266" dy="1717" grid="0" gridSize="10" guides="1" tooltips="1" connect="1" arrows="1" fold="1" page="0" pageScale="1" pageWidth="850" pageHeight="1100" math="0" shadow="0">
      <root>
        <mxCell id="0" />
        <mxCell id="1" parent="0" />
        <mxCell id="MXolmmf6S4Ifpcm5KLL4-5" style="edgeStyle=orthogonalEdgeStyle;rounded=0;orthogonalLoop=1;jettySize=auto;html=1;" edge="1" parent="1" source="MXolmmf6S4Ifpcm5KLL4-6" target="MXolmmf6S4Ifpcm5KLL4-10">
          <mxGeometry relative="1" as="geometry" />
        </mxCell>
        <mxCell id="MXolmmf6S4Ifpcm5KLL4-6" value="JSON Parser" style="rounded=1;whiteSpace=wrap;html=1;fillColor=#dae8fc;strokeColor=#6c8ebf;fontStyle=1" vertex="1" parent="1">
          <mxGeometry x="234" y="-300" width="120" height="60" as="geometry" />
        </mxCell>
        <mxCell id="MXolmmf6S4Ifpcm5KLL4-7" style="edgeStyle=orthogonalEdgeStyle;rounded=0;orthogonalLoop=1;jettySize=auto;html=1;" edge="1" parent="1" source="MXolmmf6S4Ifpcm5KLL4-8" target="MXolmmf6S4Ifpcm5KLL4-6">
          <mxGeometry relative="1" as="geometry" />
        </mxCell>
        <mxCell id="MXolmmf6S4Ifpcm5KLL4-8" value="Business Schema JSON" style="html=1;whiteSpace=wrap;" vertex="1" parent="1">
          <mxGeometry x="63" y="-295" width="110" height="50" as="geometry" />
        </mxCell>
        <mxCell id="MXolmmf6S4Ifpcm5KLL4-9" style="edgeStyle=orthogonalEdgeStyle;rounded=0;orthogonalLoop=1;jettySize=auto;html=1;" edge="1" parent="1" source="MXolmmf6S4Ifpcm5KLL4-10" target="MXolmmf6S4Ifpcm5KLL4-11">
          <mxGeometry relative="1" as="geometry" />
        </mxCell>
        <mxCell id="MXolmmf6S4Ifpcm5KLL4-10" value="PDF Generator" style="rounded=1;whiteSpace=wrap;html=1;fillColor=#dae8fc;strokeColor=#6c8ebf;fontStyle=1" vertex="1" parent="1">
          <mxGeometry x="410" y="-300" width="120" height="60" as="geometry" />
        </mxCell>
        <mxCell id="MXolmmf6S4Ifpcm5KLL4-11" value="Fillable PDF File" style="ellipse;whiteSpace=wrap;html=1;fillColor=#d5e8d4;strokeColor=#82b366;" vertex="1" parent="1">
          <mxGeometry x="582" y="-297.5" width="101" height="55" as="geometry" />
        </mxCell>
        <mxCell id="MXolmmf6S4Ifpcm5KLL4-12" value="&lt;b&gt;Output Model&lt;/b&gt;&amp;nbsp;&lt;div&gt;(primative design):&lt;div&gt;&lt;ul&gt;&lt;li&gt;fileName&lt;/li&gt;&lt;li&gt;property1&lt;/li&gt;&lt;ul&gt;&lt;li&gt;&lt;span style=&quot;background-color: initial;&quot;&gt;type&lt;/span&gt;&lt;/li&gt;&lt;li&gt;description&lt;/li&gt;&lt;li&gt;maxLength&lt;/li&gt;&lt;/ul&gt;&lt;li&gt;property2&lt;/li&gt;&lt;li&gt;property3&lt;/li&gt;&lt;/ul&gt;&lt;/div&gt;&lt;/div&gt;" style="shape=callout;whiteSpace=wrap;html=1;perimeter=calloutPerimeter;align=left;spacingLeft=0;" vertex="1" parent="1">
          <mxGeometry x="190" y="-490.5" width="173" height="193" as="geometry" />
        </mxCell>
        <mxCell id="MXolmmf6S4Ifpcm5KLL4-13" value="&lt;b&gt;Output Dict to PDF Mapping&lt;/b&gt;&amp;nbsp;&lt;div&gt;(primative design):&lt;div&gt;&lt;ul&gt;&lt;li&gt;fileName -- PDF title, PDF file name&lt;/li&gt;&lt;li&gt;property.key -- input label&lt;/li&gt;&lt;li&gt;property.type&lt;/li&gt;&lt;ul&gt;&lt;li&gt;string, int -- text field&lt;/li&gt;&lt;li&gt;bool -- checkbox&lt;/li&gt;&lt;/ul&gt;&lt;li&gt;property.description -- tooltip&lt;/li&gt;&lt;li&gt;property.maxLength -- text field size&lt;/li&gt;&lt;/ul&gt;&lt;/div&gt;&lt;/div&gt;" style="shape=callout;whiteSpace=wrap;html=1;perimeter=calloutPerimeter;align=left;spacingLeft=7;" vertex="1" parent="1">
          <mxGeometry x="381" y="-503" width="252" height="208" as="geometry" />
        </mxCell>
        <mxCell id="MXolmmf6S4Ifpcm5KLL4-14" value="&lt;h1 style=&quot;margin-top: 0px;&quot;&gt;PDF Genaration Design (v0.1)&lt;/h1&gt;&lt;p&gt;Preliminary design for the work flow&lt;/p&gt;" style="text;html=1;whiteSpace=wrap;overflow=hidden;rounded=0;" vertex="1" parent="1">
          <mxGeometry x="15" y="-659" width="310" height="120" as="geometry" />
        </mxCell>
      </root>
    </mxGraphModel>
  </diagram>
</mxfile>
